<svg width="20" height="20" viewBox="0 0 20 20" fill="none" xmlns="http://www.w3.org/2000/svg">
<path fill-rule="evenodd" clip-rule="evenodd" d="M18.3837 4.11631C18.6182 4.35093 18.75 4.6691 18.75 5.00085C18.75 5.3326 18.6182 5.65077 18.3837 5.88539L8.37475 15.8943C8.14013 16.1289 7.82196 16.2606 7.49021 16.2606C7.15846 16.2606 6.84029 16.1289 6.60567 15.8943L1.6012 10.8899C1.3733 10.6539 1.2472 10.3379 1.25005 10.0098C1.2529 9.68178 1.38448 9.36799 1.61644 9.13602C1.84841 8.90405 2.16221 8.77247 2.49025 8.76962C2.81828 8.76677 3.13432 8.89288 3.37028 9.12078L7.49021 13.2407L16.6146 4.11631C16.8492 3.88176 17.1674 3.75 17.4991 3.75C17.8309 3.75 18.1491 3.88176 18.3837 4.11631Z" fill="white"/>
</svg>
