<svg width="16" height="13" viewBox="0 0 16 13" fill="none" xmlns="http://www.w3.org/2000/svg">
<path fill-rule="evenodd" clip-rule="evenodd" d="M11.1464 0.146447C11.0527 0.0526784 10.9255 0 10.7929 0H10H9C8.44771 0 8 0.447715 8 1C8 1.55228 8.44771 2 9 2H9.5C9.77614 2 10 2.22386 10 2.5V5V6.13908C10 7.37496 8.89027 8.31504 7.6712 8.11187L7.4178 8.06963C7.17671 8.02945 7 7.82086 7 7.57644V6.5C7 6.22386 6.77614 6 6.5 6H2.20711C2.0745 6 1.94665 6.0521 1.85577 6.14867C0.665528 7.41333 0 9.08657 0 10.8284C0 10.9232 0.0768157 11 0.171573 11H1.5C1.77614 11 1.99359 11.2273 2.06171 11.4949C2.28197 12.3601 3.06626 13 4 13C4.93374 13 5.71803 12.3601 5.93829 11.4949C6.00641 11.2273 6.22386 11 6.5 11H9.5C9.77614 11 9.99359 11.2273 10.0617 11.4949C10.282 12.3601 11.0663 13 12 13C12.9337 13 13.718 12.3601 13.9383 11.4949C14.0064 11.2273 14.2239 11 14.5 11H15.5C15.7761 11 16.0031 10.7753 15.9701 10.5012C15.7798 8.91866 14.6939 7.56465 13.1539 7.05132C13.057 7.01901 12.981 6.94296 12.9487 6.84605L12.1371 4.41139C12.0584 4.17534 12.1653 3.91735 12.3879 3.80607L12.759 3.62048C13.3695 3.31523 13.5016 2.50158 13.0189 2.01894L11.1464 0.146447ZM2.5 1C2.22386 1 2 1.22386 2 1.5V4.5C2 4.77614 2.22386 5 2.5 5H5.5C5.77614 5 6 4.77614 6 4.5V1.5C6 1.22386 5.77614 1 5.5 1H2.5ZM5 11C5 11.5523 4.55228 12 4 12C3.44772 12 3 11.5523 3 11C3 10.4477 3.44772 10 4 10C4.55228 10 5 10.4477 5 11ZM12 12C12.5523 12 13 11.5523 13 11C13 10.4477 12.5523 10 12 10C11.4477 10 11 10.4477 11 11C11 11.5523 11.4477 12 12 12Z" fill="#F3752B"/>
</svg>
