<svg width="32" height="31" viewBox="0 0 32 31" fill="none" xmlns="http://www.w3.org/2000/svg">
<path fill-rule="evenodd" clip-rule="evenodd" d="M1.43393 0.965838C1.91204 0.487877 2.5604 0.219374 3.23644 0.219374C3.91248 0.219374 4.56085 0.487877 5.03895 0.965838L15.984 11.9109L26.9291 0.965838C27.1643 0.722333 27.4456 0.528105 27.7567 0.394487C28.0677 0.26087 28.4023 0.190538 28.7408 0.187596C29.0793 0.184655 29.415 0.249161 29.7284 0.377353C30.0417 0.505545 30.3263 0.694855 30.5657 0.934236C30.8051 1.17362 30.9944 1.45828 31.1226 1.7716C31.2508 2.08493 31.3153 2.42065 31.3124 2.75917C31.3094 3.0977 31.2391 3.43224 31.1055 3.74329C30.9719 4.05434 30.7776 4.33567 30.5341 4.57086L19.589 15.5159L30.5341 26.461C30.9985 26.9419 31.2555 27.5859 31.2497 28.2543C31.2439 28.9228 30.9758 29.5623 30.5031 30.035C30.0304 30.5077 29.3909 30.7758 28.7224 30.7816C28.054 30.7874 27.41 30.5304 26.9291 30.066L15.984 19.121L5.03895 30.066C4.55811 30.5304 3.91409 30.7874 3.24562 30.7816C2.57714 30.7758 1.93769 30.5077 1.46499 30.035C0.992289 29.5623 0.724158 28.9228 0.71835 28.2543C0.712541 27.5859 0.969519 26.9419 1.43393 26.461L12.379 15.5159L1.43393 4.57086C0.955973 4.09275 0.687469 3.44439 0.687469 2.76835C0.687469 2.09231 0.955973 1.44394 1.43393 0.965838Z" fill="white"/>
</svg>
