<svg width="32" height="23" viewBox="0 0 32 23" fill="none" xmlns="http://www.w3.org/2000/svg">
<path fill-rule="evenodd" clip-rule="evenodd" d="M30.6714 1.20354C31.0819 1.61413 31.3125 2.17092 31.3125 2.75149C31.3125 3.33205 31.0819 3.88885 30.6714 4.29943L13.1558 21.8151C12.7452 22.2255 12.1884 22.4561 11.6079 22.4561C11.0273 22.4561 10.4705 22.2255 10.0599 21.8151L1.30209 13.0573C0.90326 12.6443 0.682575 12.0913 0.687564 11.5172C0.692552 10.9431 0.922815 10.394 1.32876 9.98803C1.7347 9.58209 2.28384 9.35183 2.85791 9.34684C3.43198 9.34185 3.98504 9.56254 4.39798 9.96136L11.6079 17.1712L27.5755 1.20354C27.9861 0.793084 28.5429 0.5625 29.1235 0.5625C29.7041 0.5625 30.2609 0.793084 30.6714 1.20354Z" fill="white"/>
</svg>
